<?xml version="1.0" encoding="utf-8"?>
<!-- Generator: Adobe Illustrator 26.3.1, SVG Export Plug-In . SVG Version: 6.00 Build 0)  -->
<svg version="1.1" id="Layer_1" xmlns="http://www.w3.org/2000/svg" xmlns:xlink="http://www.w3.org/1999/xlink" x="0px" y="0px"
	 viewBox="0 0 92 56" style="enable-background:new 0 0 92 56;" xml:space="preserve">
<style type="text/css">
	.st0{fill:#FFFFFF;}
	.st1{fill:#ADB1B5;}
	.st2{fill:#E8E9EA;}
</style>
<path class="st0" d="M3,0h86c1.7,0,3,1.3,3,3v50c0,1.7-1.3,3-3,3H3c-1.7,0-3-1.3-3-3V3C0,1.3,1.3,0,3,0z"/>
<path class="st0" d="M0,0"/>
<path class="st1" d="M37.6,8h28.7c0.9,0,1.6-0.4,1.6-1l0,0c0-0.6-0.7-1-1.6-1H37.6C36.7,6,36,6.4,36,7l0,0C36,7.6,36.7,8,37.6,8z"/>
<path class="st1" d="M7.2,15.8h77.9c2.3,0,3.2-0.6,3.2-1.4l0,0c0-0.8-0.9-1.4-3.2-1.4H7.2C4.9,13,4,13.6,4,14.4l0,0
	C4,15.2,4.9,15.8,7.2,15.8z"/>
<path class="st1" d="M78.4,8h3.2c0.3,0,0.5-0.4,0.5-1l0,0c0-0.6-0.2-1-0.5-1h-3.2c-0.3,0-0.5,0.4-0.5,1l0,0C77.9,7.6,78.1,8,78.4,8z
	"/>
<path class="st1" d="M84.6,8h3.2c0.3,0,0.5-0.4,0.5-1l0,0c0-0.6-0.2-1-0.5-1h-3.2c-0.3,0-0.5,0.4-0.5,1l0,0C84.1,7.6,84.3,8,84.6,8z
	"/>
<path class="st1" d="M6,9h14c1.7,0,3-1.3,3-3l0,0c0-1.7-1.3-3-3-3H6C4.3,3,3,4.3,3,6l0,0C3,7.7,4.3,9,6,9z"/>
<rect y="20.6" class="st2" width="92" height="35.4"/>
</svg>
